<?xml version="1.0" standalone="no"?>
<!DOCTYPE svg PUBLIC "-//W3C//DTD SVG 20010904//EN"
 "http://www.w3.org/TR/2001/REC-SVG-20010904/DTD/svg10.dtd">
<svg version="1.0" xmlns="http://www.w3.org/2000/svg"
 width="512.000000pt" height="512.000000pt" viewBox="0 0 512.000000 512.000000"
 preserveAspectRatio="xMidYMid meet">
<metadata>
Created by potrace 1.11, written by Peter Selinger 2001-2013
</metadata>
<g transform="translate(0.000000,512.000000) scale(0.100000,-0.100000)"
fill="#000000" stroke="none">
<path d="M415 5110 c-153 -31 -295 -140 -362 -280 -56 -116 -53 5 -50 -2295 2
-2073 3 -2131 21 -2180 70 -181 200 -299 376 -342 45 -10 453 -12 2185 -10
2046 2 2132 3 2180 21 157 58 282 184 331 332 18 57 19 115 19 2204 l0 2145
-23 65 c-57 166 -181 281 -361 334 -48 14 -264 16 -2165 15 -1161 -1 -2129 -5
-2151 -9z"/>
</g>
</svg>
